<?xml version="1.0" encoding="UTF-8" standalone="no"?>
<!DOCTYPE svg PUBLIC "-//W3C//DTD SVG 1.1//EN" "http://www.w3.org/Graphics/SVG/1.1/DTD/svg11.dtd">
<!-- Created with Vectornator (http://vectornator.io/) -->
<svg height="100%" stroke-miterlimit="10" style="fill-rule:nonzero;clip-rule:evenodd;stroke-linecap:round;stroke-linejoin:round;" version="1.1" viewBox="0 0 1373.84 1032.12" width="100%" xml:space="preserve" xmlns="http://www.w3.org/2000/svg" xmlns:vectornator="http://vectornator.io" xmlns:xlink="http://www.w3.org/1999/xlink">
<defs/>
<g id="Layer-1" vectornator:layerName="Layer 1">
<path d="M265.437 629.452C265.437 433.811 423.214 275.213 617.841 275.213C812.468 275.213 970.245 433.811 970.245 629.452C970.245 825.092 812.468 983.69 617.841 983.69C423.214 983.69 265.437 825.092 265.437 629.452Z" fill="#de7911" fill-rule="nonzero" opacity="1" stroke="#000000" stroke-linecap="butt" stroke-linejoin="round" stroke-width="6" vectornator:layerName="Oval 1"/>
<path d="M752.229 266.237C752.229 266.238 752.229 266.238 752.229 266.238C752.229 266.238 752.228 266.237 752.228 266.237C752.228 266.237 752.228 266.236 752.228 266.235C752.228 266.234 752.228 266.233 752.23 266.232C752.231 266.231 752.234 266.23 752.237 266.23C752.241 266.231 752.246 266.233 752.251 266.239C752.255 266.245 752.26 266.255 752.258 266.27C752.256 266.285 752.247 266.306 752.223 266.325C752.198 266.344 752.157 266.361 752.095 266.353C752.032 266.346 751.947 266.311 751.869 266.21C751.792 266.11 751.719 265.938 751.751 265.683C751.784 265.427 751.926 265.077 752.339 264.757C752.752 264.437 753.457 264.138 754.509 264.272C755.56 264.406 756.999 264.988 758.315 266.688C759.631 268.387 760.859 271.285 760.309 275.608C759.759 279.932 757.364 285.847 750.377 291.257C743.391 296.667 731.476 301.713 713.702 299.453C695.928 297.193 671.611 287.346 649.368 258.623C627.125 229.899 606.379 180.915 615.671 107.844C624.962 34.7721 752.229 266.237 752.229 266.237Z" fill="#1d7911" fill-rule="nonzero" opacity="1" stroke="#000000" stroke-linecap="butt" stroke-linejoin="round" stroke-width="6" vectornator:layerName="Spiral 2"/>
<path d="M715.278 356.403C715.278 356.403 715.278 356.403 715.278 356.402C715.278 356.402 715.279 356.402 715.279 356.402C715.28 356.401 715.281 356.401 715.283 356.402C715.284 356.403 715.286 356.405 715.287 356.408C715.287 356.412 715.287 356.417 715.283 356.423C715.28 356.428 715.272 356.435 715.258 356.438C715.245 356.441 715.224 356.44 715.2 356.425C715.177 356.409 715.149 356.378 715.137 356.322C715.125 356.266 715.129 356.182 715.192 356.084C715.256 355.986 715.382 355.871 715.613 355.822C715.845 355.772 716.191 355.789 716.593 356.05C716.996 356.31 717.468 356.83 717.671 357.781C717.874 358.732 717.806 360.155 716.734 361.81C715.662 363.465 713.524 365.406 709.614 366.242C705.704 367.077 699.856 366.797 693.052 362.388C686.249 357.979 678.266 349.193 674.832 333.117C671.399 317.042 672.55 292.999 690.675 265.028C708.801 237.057 744.923 204.237 811.013 190.121C877.102 176.005 975.948 180.74 1090.94 255.256C1205.94 329.772 715.278 356.404 715.278 356.403Z" fill="#1d7911" fill-rule="nonzero" opacity="1" stroke="#000000" stroke-linecap="butt" stroke-linejoin="round" stroke-width="6" vectornator:layerName="Spiral 1"/>
</g>
</svg>
