<?xml version="1.0" encoding="UTF-8" standalone="no"?>
<!DOCTYPE svg PUBLIC "-//W3C//DTD SVG 1.1//EN" "http://www.w3.org/Graphics/SVG/1.1/DTD/svg11.dtd">
<!-- Created with Vectornator (http://vectornator.io/) -->
<svg height="100%" stroke-miterlimit="10" style="fill-rule:nonzero;clip-rule:evenodd;stroke-linecap:round;stroke-linejoin:round;" version="1.1" viewBox="0 0 1300.37 2384.24" width="100%" xml:space="preserve" xmlns="http://www.w3.org/2000/svg" xmlns:vectornator="http://vectornator.io" xmlns:xlink="http://www.w3.org/1999/xlink">
<defs/>
<g id="Layer-1" vectornator:layerName="Layer 1">
<path d="M632.742 792.26C585.705 733.089 560.359 673.143 541.438 612.969C523.343 552.743 513.785 492.266 511.445 431.479C509.076 370.723 514.294 309.649 527.955 248.295C542.413 186.92 563.54 125.311 606.45 62.8936C653.701 122.028 679.2 182.001 698.06 242.176C716.094 302.404 725.745 362.91 727.746 423.675C729.841 484.468 724.624 545.542 710.962 606.896C696.412 668.243 675.377 729.88 632.742 792.26Z" fill="#8bc34a" fill-rule="nonzero" opacity="1" stroke="none" vectornator:layerName="path"/>
<path d="M885.831 208.775C897.479 283.714 889.945 348.737 876.667 410.755C862.583 472.365 841.019 530.096 812.938 584.505C784.947 638.881 750.192 689.818 707.955 736.815C664.974 783.464 616.065 827.05 547.91 860.601C535.983 785.517 543.456 720.495 556.826 658.505C570.94 596.863 592.474 539.164 620.835 484.901C649.073 430.642 683.86 379.734 726.097 332.737C769.046 286.059 817.833 242.475 885.831 208.775Z" fill="#7cb342" fill-rule="nonzero" opacity="1" stroke="none" vectornator:layerName="path 1"/>
<path d="M721.026 856.089C650.567 826.678 598.558 786.01 552.096 741.952C506.357 697.447 467.915 648.527 435.653 595.864C403.33 543.203 377.489 486.607 358.852 425.569C340.881 364.206 328.635 299.266 334.991 223.035C405.66 252.287 457.76 292.923 504.161 336.982C549.838 381.489 588.342 430.407 620.332 483.23C652.414 536.02 678.286 592.645 696.862 653.686C714.805 715.14 727.172 780.016 721.026 856.089Z" fill="#7cb342" fill-rule="nonzero" opacity="1" stroke="none" vectornator:layerName="path 2"/>
<path d="M1074.2 387.635C1060 462.386 1031.02 521.319 997.636 575.528C963.654 629.11 923.876 676.472 879.124 718.573C834.371 760.674 784.516 797.273 728.773 827.685C672.527 857.559 611.774 882.497 536.064 891.561C550.079 816.632 578.959 757.609 612.438 703.49C646.42 649.908 686.228 602.515 731.17 560.654C776.111 518.731 825.998 482.162 881.709 451.72C937.988 421.937 998.738 396.877 1074.2 387.635Z" fill="#558b2f" fill-rule="nonzero" opacity="1" stroke="none" vectornator:layerName="path 3"/>
<path d="M185.972 380.037C258.181 391.887 314.571 418.447 366.206 449.386C417.213 480.924 462.001 518.258 501.466 560.567C540.96 602.784 574.923 650.197 602.697 703.374C629.872 757.118 652.142 815.337 658.473 888.392C586.055 876.762 529.605 850.265 477.999 819.233C427.022 787.664 382.204 750.362 342.979 707.862C303.693 665.425 269.73 618.012 241.988 564.865C214.842 511.09 192.513 452.934 185.972 380.037Z" fill="#558b2f" fill-rule="nonzero" opacity="1" stroke="none" vectornator:layerName="path 4"/>
<path d="M1159.61 1285.86C1155.84 1139.94 1087.61 995.763 979.026 890.506C922.674 835.864 765.476 765.642 669.978 766.185C628.359 767.263 626.523 767.31 626.523 767.31L571.806 768.727C571.806 768.727 417.503 766.566 288.336 902.598C181.944 1014.65 117.037 1164.23 120.944 1312.78C121.201 1322.69 126.391 1524.39 126.651 1534.43C134.256 1828.21 372.939 2060.4 659.775 2053C946.609 2045.55 1172.96 1801.32 1165.35 1507.54C1165.16 1501.21 1159.78 1292.1 1159.61 1285.86Z" fill="#f9a825" fill-rule="nonzero" opacity="1" stroke="none" vectornator:layerName="path 5"/>
<path d="M1136.36 1695.82C1136.42 1695.76 1136.45 1695.73 1136.48 1695.7C1151.15 1652.2 1161.02 1606.41 1164.11 1558.71C1131.56 1581.42 1102.36 1606.95 1081.83 1626.56C1043.84 1593.95 978.394 1543.92 915.348 1524.06C964.55 1476.39 1035.75 1422.15 1076.52 1421.16C1098.76 1420.55 1131 1435.58 1164.03 1456.49C1163.25 1426.2 1162.25 1387.52 1161.39 1354.59C1150.02 1349.28 1138.57 1344.74 1127.15 1341.11C1137.39 1331.26 1148.65 1321.11 1160.27 1311.26C1159.9 1296.81 1159.65 1287.08 1159.61 1285.86C1158.9 1259.33 1156.01 1232.94 1151.17 1206.73C1120.13 1228.79 1092.38 1253.12 1072.68 1271.91C1034.66 1239.33 969.214 1189.3 906.168 1169.44C955.431 1121.77 1026.54 1067.56 1067.3 1066.51C1079.33 1066.23 1094.33 1070.74 1110.59 1077.88C1061.56 968.815 978.171 872.859 873.322 809.122C771.843 757.24 626.524 767.371 626.524 767.371C658.534 766.543 711.095 797.765 757.238 833.042C707.309 859.721 660.129 900.292 630.633 928.463C599.72 901.856 550.502 863.719 499.261 839.72C543.548 802.133 594.392 768.203 626.463 767.373C626.463 767.373 488.349 751.809 386.019 820.848C283.629 889.95 204.064 990.217 159.861 1102.03C175.432 1094.31 189.878 1089.28 201.628 1088.92C242.39 1087.86 316.303 1138.34 367.935 1183.37C306.063 1206.47 243.228 1259.82 207.006 1294.32C186.305 1276.57 157.389 1253.77 125.289 1233.38C121.745 1259.75 120.167 1286.31 120.883 1312.78C120.902 1314.71 121.181 1324.28 121.509 1338.15C133.661 1347.42 145.391 1356.94 156.106 1366.28C144.944 1370.43 133.685 1375.56 122.631 1381.48C123.485 1414.47 124.484 1453.09 125.269 1483.39C157.204 1460.76 188.59 1444.11 210.869 1443.53C251.601 1442.51 325.483 1492.96 377.115 1537.99C315.182 1561.09 252.408 1614.44 216.156 1648.97C194.639 1630.45 164.161 1606.46 130.454 1585.5C136.123 1632.97 148.195 1678.17 165.162 1720.84C165.194 1720.87 165.225 1720.9 165.256 1720.93L165.256 1720.93C176.332 1748.94 189.64 1775.67 204.995 1800.99C210.195 1799.6 215.459 1798.27 219.988 1798.15C260.75 1797.1 334.602 1847.58 386.234 1892.61C362.214 1901.62 338.163 1915.32 315.467 1930.55C339.92 1951.26 366.242 1969.68 394.152 1985.56C411.705 1976.32 427.962 1970.26 440.967 1969.89C477.262 1968.95 539.63 2008.77 589.371 2049.38C612.435 2051.93 635.842 2053.56 659.651 2052.95C683.489 2052.3 706.75 2049.43 729.652 2045.74C777.226 2002.62 837.482 1959.66 873.745 1958.69C886.781 1958.35 903.3 1963.59 921.337 1971.88C948.388 1954.58 973.693 1934.85 997.041 1912.9C973.588 1898.87 948.86 1886.44 924.406 1878.68C973.607 1831.01 1044.78 1776.8 1085.54 1775.75C1090.07 1775.63 1095.4 1776.69 1100.66 1777.81C1114.69 1751.72 1126.62 1724.31 1136.27 1695.8C1136.39 1695.79 1136.39 1695.79 1136.36 1695.82ZM1021.91 1343.99C960.005 1367.06 897.105 1420.29 860.823 1454.79C822.803 1422.21 757.234 1372.31 694.19 1352.51C743.42 1304.75 814.712 1250.41 855.505 1249.39C896.297 1248.3 970.273 1298.84 1021.91 1343.99ZM810.141 1526.9C748.175 1549.97 685.306 1603.17 649.025 1637.73C611.004 1605.09 545.466 1555.22 482.39 1535.39C531.622 1487.69 602.914 1433.35 643.707 1432.33C684.499 1431.24 758.446 1481.82 810.141 1526.9ZM846.353 894.675C887.086 893.652 960.968 944.104 1012.6 989.13C950.666 1012.23 887.924 1065.61 851.671 1100.08C813.712 1067.5 748.233 1017.5 685.217 997.605C734.45 949.968 805.591 895.731 846.353 894.675ZM800.929 1172.25C738.994 1195.29 676.124 1248.49 639.841 1282.99C601.822 1250.41 536.286 1200.6 473.24 1180.74C522.47 1132.98 593.764 1078.7 634.526 1077.65C675.288 1076.59 749.264 1127.14 800.929 1172.25ZM252.261 1009C301.461 961.269 372.754 906.997 413.515 905.88C413.576 905.879 413.576 905.879 413.637 905.877C454.401 904.883 528.377 955.425 580.011 1000.51C518.076 1023.55 455.237 1076.78 418.893 1111.28C380.874 1078.7 315.307 1028.86 252.261 1009ZM261.623 1363.55C310.823 1315.82 382.025 1261.58 422.758 1260.56C463.52 1259.5 537.372 1309.99 589.004 1355.01C527.1 1378.08 464.328 1431.49 428.075 1465.96C390.087 1433.41 324.606 1383.36 261.623 1363.55ZM270.803 1718.17C320.003 1670.44 391.207 1616.26 431.969 1615.21C472.702 1614.18 546.552 1664.61 598.217 1709.72C536.282 1732.76 473.478 1786.14 437.286 1820.61C399.298 1788.06 333.787 1738.04 270.803 1718.17ZM658.236 1992.38C620.185 1959.77 554.679 1909.93 491.603 1890.1C540.865 1842.37 612.127 1788.06 652.919 1786.98C693.712 1785.95 767.689 1836.49 819.385 1881.64C757.357 1904.65 694.517 1957.82 658.236 1992.38ZM870.003 1809.41C831.983 1776.83 766.475 1726.93 703.401 1707.15C752.631 1659.39 823.923 1605.06 864.685 1604.01C905.54 1602.98 979.455 1653.52 1031.15 1698.67C969.155 1721.71 906.347 1774.91 870.003 1809.41Z" fill="#c68632" fill-rule="nonzero" opacity="1" stroke="none" vectornator:layerName="path 6"/>
</g>
</svg>
